<svg width="32" height="32" viewBox="0 0 32 32" fill="none" xmlns="http://www.w3.org/2000/svg">
<g clip-path="url(#clip0_307_44)">
<path d="M11.9631 19.8153C11.9157 19.2945 11.705 18.8897 11.331 18.6009C10.9616 18.3073 10.4337 18.1605 9.74716 18.1605C9.29261 18.1605 8.91383 18.2197 8.6108 18.3381C8.30777 18.4564 8.08049 18.6198 7.92898 18.8281C7.77746 19.0317 7.69934 19.2661 7.6946 19.5312C7.68513 19.7491 7.72775 19.9408 7.82244 20.1065C7.92188 20.2723 8.06392 20.419 8.24858 20.5469C8.43797 20.67 8.66525 20.7789 8.9304 20.8736C9.19555 20.9683 9.49384 21.0511 9.82528 21.1222L11.0753 21.4062C11.795 21.5625 12.4295 21.7708 12.9787 22.0312C13.5327 22.2917 13.9967 22.6018 14.3707 22.9616C14.7495 23.3215 15.036 23.7358 15.2301 24.2045C15.4242 24.6733 15.5237 25.1989 15.5284 25.7812C15.5237 26.6998 15.2917 27.4882 14.8324 28.1463C14.3731 28.8045 13.7126 29.3087 12.8509 29.6591C11.9938 30.0095 10.9593 30.1847 9.74716 30.1847C8.5303 30.1847 7.4697 30.0024 6.56534 29.6378C5.66098 29.2732 4.95786 28.7192 4.45597 27.9759C3.95407 27.2325 3.69602 26.2926 3.68182 25.1562H7.0483C7.0767 25.625 7.20218 26.0156 7.42472 26.3281C7.64725 26.6406 7.95265 26.8774 8.34091 27.0384C8.7339 27.1993 9.18845 27.2798 9.70455 27.2798C10.178 27.2798 10.5805 27.2159 10.9119 27.0881C11.2481 26.9602 11.5062 26.7827 11.6861 26.5554C11.866 26.3281 11.9583 26.0677 11.9631 25.7741C11.9583 25.4995 11.8731 25.2652 11.7074 25.071C11.5417 24.8722 11.286 24.7017 10.9403 24.5597C10.5994 24.4129 10.1638 24.2779 9.63352 24.1548L8.11364 23.7997C6.85417 23.5109 5.86222 23.0445 5.13778 22.4006C4.41335 21.7519 4.0535 20.8759 4.05824 19.7727C4.0535 18.8731 4.29498 18.0848 4.78267 17.4077C5.27036 16.7306 5.94508 16.2027 6.80682 15.8239C7.66856 15.4451 8.65104 15.2557 9.75426 15.2557C10.8812 15.2557 11.8589 15.4474 12.6875 15.831C13.5208 16.2098 14.1671 16.7424 14.6264 17.429C15.0857 18.1155 15.3201 18.911 15.3295 19.8153H11.9631ZM16.504 30V15.4545H22.5125C23.6015 15.4545 24.5414 15.651 25.3321 16.044C26.1276 16.4323 26.7407 16.991 27.1716 17.7202C27.6025 18.4446 27.8179 19.304 27.8179 20.2983C27.8179 21.3068 27.5977 22.1638 27.1574 22.8693C26.717 23.5701 26.092 24.1051 25.2824 24.4744C24.4727 24.839 23.5139 25.0213 22.406 25.0213H18.6062V22.2514H21.7526C22.2829 22.2514 22.7256 22.1828 23.0807 22.0455C23.4405 21.9034 23.7128 21.6903 23.8974 21.4062C24.0821 21.1174 24.1744 20.7481 24.1744 20.2983C24.1744 19.8485 24.0821 19.4768 23.8974 19.1832C23.7128 18.8849 23.4405 18.6624 23.0807 18.5156C22.7208 18.3641 22.2781 18.2884 21.7526 18.2884H20.0196V30H16.504ZM24.6929 23.3523L28.3151 30H24.4798L20.9287 23.3523H24.6929Z" fill="#333333"/>
<path fill-rule="evenodd" clip-rule="evenodd" d="M15 5C15 4.44772 15.4477 4 16 4C16.5523 4 17 4.44772 17 5V6.08296C17.8993 6.23383 18.7308 6.58476 19.4471 7.08842L19.8284 6.70711C20.2189 6.31658 20.8521 6.31658 21.2426 6.70711C21.6332 7.09763 21.6332 7.7308 21.2426 8.12132L20.8698 8.49418C21.3958 9.22363 21.762 10.076 21.917 11H23.5C23.7761 11 24 11.2239 24 11.5C24 11.7761 23.7761 12 23.5 12H22H20C20 9.79086 18.2091 8 16 8C13.7909 8 12 9.79086 12 12H10H8.5C8.22386 12 8 11.7761 8 11.5C8 11.2239 8.22386 11 8.5 11H10.083C10.2359 10.0883 10.5944 9.2464 11.1093 8.52347L10.7071 8.12132C10.3166 7.7308 10.3166 7.09763 10.7071 6.70711C11.0976 6.31658 11.7308 6.31658 12.1213 6.70711L12.5235 7.10925C13.2464 6.59444 14.0883 6.23591 15 6.08296V5Z" fill="#D9D9D9"/>
<path fill-rule="evenodd" clip-rule="evenodd" d="M10.3414 10C10.5289 9.46963 10.7888 8.97349 11.1093 8.52347L10.7071 8.12132C10.3166 7.7308 10.3166 7.09763 10.7071 6.70711C11.0976 6.31658 11.7308 6.31658 12.1213 6.70711L12.5235 7.10925C12.5637 7.08058 12.6044 7.0524 12.6453 7.02471C13.3404 6.55514 14.1391 6.22739 15 6.08296V5C15 4.44772 15.4477 4 16 4C16.5523 4 17 4.44772 17 5V6.08296C17.0022 6.08333 17.0044 6.0837 17.0066 6.08407C17.9034 6.23555 18.7325 6.586 19.4471 7.08842L19.8278 6.70769C20.2184 6.31717 20.8521 6.31658 21.2426 6.70711C21.6332 7.09763 21.6332 7.7308 21.2426 8.12132L20.8698 8.49418C20.9057 8.544 20.9409 8.59439 20.9753 8.64534C21.2571 9.06253 21.4879 9.51708 21.6586 10C21.7723 10.3216 21.8593 10.6558 21.917 11H23.5C23.7761 11 24 11.2239 24 11.5C24 11.7761 23.7761 12 23.5 12H20C20 9.79086 18.2091 8 16 8C13.7909 8 12 9.79086 12 12H8.5C8.22386 12 8 11.7761 8 11.5C8 11.2239 8.22386 11 8.5 11H10.083C10.0833 10.9978 10.0837 10.9956 10.0841 10.9934C10.1418 10.6516 10.2285 10.3196 10.3414 10ZM8.70687 8.70851C8.1737 7.59325 8.36904 6.21675 9.29289 5.29289C10.2167 4.36904 11.5932 4.1737 12.7085 4.70687C12.8147 4.65891 12.922 4.61319 13.0306 4.56977C13.2393 3.11674 14.4892 2 16 2C17.5108 2 18.7607 3.11674 18.9694 4.56977C19.0692 4.60968 19.168 4.65154 19.2657 4.69529C20.3766 4.17659 21.7397 4.37579 22.6568 5.29289C23.5657 6.20175 23.7695 7.54868 23.2682 8.65401C23.3208 8.76791 23.3707 8.88326 23.4179 9H23.5C24.8807 9 26 10.1193 26 11.5C26 12.8807 24.8807 14 23.5 14H18V12C18 10.8954 17.1046 10 16 10C14.8954 10 14 10.8954 14 12V14H8.5C7.11929 14 6 12.8807 6 11.5C6 10.1193 7.11929 9 8.5 9H8.58209C8.62181 8.90185 8.66342 8.80467 8.70687 8.70851Z" fill="#333333"/>
</g>
<defs>
<clipPath id="clip0_307_44">
<rect width="32" height="32" fill="white"/>
</clipPath>
</defs>
</svg>
